<?xml version="1.0" encoding="UTF-8"?><svg xmlns="http://www.w3.org/2000/svg" viewBox="0 0 36 36">
 <g id="change1_1"><path d="m30.5 18.572l-4.5 6.428h2.575c-1.13 3.988-4.445 7.05-8.575 7.81v-15.81h3c1.104 0 2-0.896 2-2s-0.896-2-2-2h-3v-1.349h-4v1.349h-3c-1.104 0-2 0.896-2 2s0.896 2 2 2h3v15.81c-4.13-0.76-7.445-3.821-8.575-7.81h2.575l-4.5-6.428-4.5 6.428h3.33c1.375 6.289 6.969 11 13.67 11s12.295-4.711 13.67-11h3.33l-4.5-6.428z" fill="#269"/></g>
 <g id="change1_2"><path d="m18 0c-3.314 0-6 2.686-6 6s2.686 6 6 6 6-2.686 6-6-2.686-6-6-6zm0 9c-1.657 0-3-1.343-3-3s1.343-3 3-3 3 1.343 3 3-1.343 3-3 3z" fill="#269"/></g>
</svg>